<?xml version="1.0" encoding="utf-8"?>
<!-- Generator: Adobe Illustrator 24.1.1, SVG Export Plug-In . SVG Version: 6.00 Build 0)  -->
<svg version="1.1" id="Ebene_1" xmlns="http://www.w3.org/2000/svg" xmlns:xlink="http://www.w3.org/1999/xlink" x="0px" y="0px"
	 viewBox="0 0 564.02 243.22" style="enable-background:new 0 0 564.02 243.22;" xml:space="preserve">
<style type="text/css">
	.st0{fill:#D2DDF2;}
	.st1{clip-path:url(#SVGID_2_);fill:#154194;}
	.st2{fill:none;}
	.st3{fill:#164292;}
	.st4{font-family:'DroidSans';}
	.st5{font-size:20.5px;}
</style>
<rect x="45.21" y="45.21" class="st0" width="156.41" height="152.79"/>
<g>
	<defs>
		<rect id="SVGID_1_" width="564.02" height="243.22"/>
	</defs>
	<clipPath id="SVGID_2_">
		<use xlink:href="#SVGID_1_"  style="overflow:visible;"/>
	</clipPath>
	<path class="st1" d="M214.84,145.39c-18.17-2.67-68.17,2.21-68.17,2.21c6-24.37,26.83-78.71,26.83-78.71
		c-16.33,9.33-70.5,85.83-70.5,85.83l-18,4.5c-6.17,2.04-5.67,7-5.67,7c0.25,4.95,6.5,3.98,6.5,3.98c3.44-0.52,9.9-2.49,9.9-2.49
		c-7.31,9.98-19.23,33.34-19.23,33.34c-2.08,4,4.67,5.83,4.67,5.83c3.7,1.03,5.67-3.5,5.67-3.5l23.17-40.67l26.67-4.67
		c-6.53,32.73,0,64.5,0,64.5c2-50.83,8.06-66.82,8.06-66.82C152.06,153.07,214.84,145.39,214.84,145.39 M115.84,152.06
		c0,0,40-62.83,49.33-69.67c0,0-20,42.58-26.17,66.5L115.84,152.06z"/>
</g>
<rect x="219.59" y="158.22" class="st2" width="308.14" height="46.57"/>
<text transform="matrix(1 0 0 1 219.5854 172.7778)"><tspan x="0" y="0" class="st3 st4 st5">Akademie für Öffentliches </tspan><tspan x="0" y="24.6" class="st3 st4 st5">Gesundheitswesen in Düsseldorf</tspan></text>
</svg>
